<svg id="Layer_1" data-name="Layer 1" xmlns="http://www.w3.org/2000/svg" viewBox="0 0 214 289"><defs><style>.cls-1{fill:#fefefe;}.cls-2{fill:#dec082;}.cls-3{fill:#fdfdfd;}.cls-4{fill:#cbd9f9;}.cls-5{fill:#cad8f7;}.cls-6{fill:#1b1a19;}.cls-7{fill:#372926;}.cls-8{fill:#bca26f;}.cls-9{fill:#c48259;}.cls-10{fill:#c7855a;}.cls-11{fill:#0b0705;}.cls-12{fill:#dcbd81;}.cls-13{fill:#9a855b;}.cls-14{fill:#d7b97e;}.cls-15{fill:#c7d5f3;}.cls-16{fill:#c0ceeb;}.cls-17{fill:#a08a5e;}.cls-18{fill:#16100b;}.cls-19{fill:#d5d5d6;}.cls-20{fill:#87754f;}.cls-21{fill:#010101;}.cls-22{fill:#191c1a;}.cls-23{fill:#b6764f;}.cls-24{fill:#0d0a07;}.cls-25{fill:#14120e;}.cls-26{fill:#0a0705;}.cls-27{fill:#b29456;}.cls-28{fill:#b19355;}.cls-29{fill:#b49659;}.cls-30{fill:#b49658;}.cls-31{fill:#110d0a;}.cls-32{fill:#b19356;}.cls-33{fill:#b6985b;}.cls-34{fill:#c5a769;}.cls-35{fill:#c6a86a;}.cls-36{fill:#1f1c15;}.cls-37{fill:#b7995c;}.cls-38{fill:#b99b5d;}.cls-39{fill:#ad9052;}.cls-40{fill:#ae9052;}.cls-41{fill:#bf855a;}.cls-42{fill:#040302;}.cls-43{fill:#ddbf82;}.cls-44{fill:#322622;}.cls-45{fill:#2e221f;}.cls-46{fill:#352923;}.cls-47{fill:#a48e61;}.cls-48{fill:#a18b5f;}.cls-49{fill:#a38c5f;}.cls-50{fill:#a28c5f;}.cls-51{fill:#9c865c;}.cls-52{fill:#a38d60;}.cls-53{fill:#5b351d;}.cls-54{fill:#f9f9f9;}.cls-55{fill:#5b341c;}.cls-56{fill:#3c2212;}.cls-57{fill:#cb865b;}.cls-58{fill:#150b08;}.cls-59{fill:#170f0b;}.cls-60{fill:#5c0101;}.cls-61{fill:#f3f2f0;}.cls-62{fill:#968d8d;}.cls-63{fill:#a39b9b;}.cls-64{fill:#d59465;}.cls-65{fill:#eaeaec;}.cls-66{fill:#eaeae9;}</style></defs><title>logo</title><path class="cls-1" d="M155.53,221.29c3,16,31.35,11.57,41.33,21,2.58,2.45,11,36.15,3.59,43.21-65.15-.12-25.54-2-90.69-2-42.83,0-54,0-96.82,0-9.44,0-7.43-18.85-5.19-23.75,1.3-2.85,3.77-9.57,5.47-14.32,1-2.91,14.48-5.9,11.39-5.9-3.3,0,32.33-7.46,32.33-11"/><path d="M67.23,261.4c-2.83.38-3.23-1.89-3.83-3.7-2.31-6.91-5.2-13.65-6.34-20.91-.47-3-1.71-3.87-4.82-2.61-7.68,3.12-15.33,6.41-23.9,6.46a9,9,0,0,0-5,2.11c-2.38,1.87-4.13,1.43-5.93-.81A18.66,18.66,0,0,1,31,235.69c7.89-.17,14.69-3.85,21.79-6.58,2-.78,2.29-2.75,2.92-4.4,1.55-4.1,3.07-8.15,9.34-8.25-10.69-6.71-20.32-13.14-28.3-21.77-9.37-10.15-14.38-21.79-13.7-35.75a22,22,0,0,0-3.52-13.26c-7.49-12.41-11.48-26.17-8.13-41,1.09-4.84,3.53-8.78,9.49-8.23,2.95.27,2.15-1.82,2.17-3.28.11-8.16-.28-16.35.29-24.47C24.55,52,30.06,36.91,41.84,24.55c9.55-10,22.23-12.91,35.12-15,25.1-4,50.11-3.37,74.8,2.85C173,17.78,184,32.84,189.21,53.06c3.33,13,3.26,26.38,3.06,39.71,0,2.34-.5,4.23,3.37,4.08,4.77-.18,7.27,3.54,8.46,7.82a35.67,35.67,0,0,1,.25,18.27c-2.37,9.63-3.78,19.68-11.4,27.09a3.52,3.52,0,0,0-.81,3.24c2.62,26.58-11.93,43.44-32.28,57-3,2-6.06,3.85-9.73,6.18,5.54.75,7.79,4.25,9.18,8.54.78,2.39,2.43,3.65,4.67,4.73,7.54,3.64,15.24,6.54,23.76,6.6,3,0,5.45,1.4,7.7,3.15.86.67,2.81,1.31,1.43,2.85a3.27,3.27,0,0,1-4,1.09c-9.91-4.49-21.48-3.59-31-9.65-2.07-1.32-3.93-.14-4.29,2.75-.9,7.13-3.73,13.77-5.53,20.67-.49,1.89-1.1,3.9-3.56,4.23-2.16-2-.62-4.06,0-6,1.82-5.71,3.51-11.46,5-17.27s.42-11.22-4.06-15.6a6.9,6.9,0,0,0-7-.81c-1,2.21-.2,4.1.84,6.1,2.27-1.09,1.5-3.39,2.48-4.84a2,2,0,0,1,2.49-.87c2.37,3.4,1.33,6.62-.7,9.66a31.42,31.42,0,0,1-12.75,10.81c-1.89.92-4,1.58-5.71,3.3a126.18,126.18,0,0,1,13.66,10.13c1.75,1.42,3.93,2.66,3.83,5.43-2.68,1.38-4.74.08-6.74-1.55-3.48-2.83-7.18-5.35-10.77-8-2.84-2.13-5.22-1.6-7.11,1.39-1.77,2.8-3.25,5.8-5.52,8.27L114,265.67c-3.65.26-2.72-2.34-2.08-4,3.35-8.42,7.17-16.55,15.9-20.92,2.39-1.19,4.59-2.7,6.93-4,1.73-.95,2.06-2.26,1.74-4.17-1.22-7.4-1.68-7.78-8.94-5.71a71.13,71.13,0,0,1-40.86-.17c-2.11-.64-4.75-2.51-6.14,1.44-2,5.57-1.76,7.29,1.83,9.44A14.18,14.18,0,0,0,85,239.06c10.68,3.59,14.48,13.06,18.81,22,.64,1.32,1.12,2.82.18,4.29-3.91,1.4-3-2.59-4.49-4-2.1-2.33-3.38-5.21-5.24-7.71-2.8-3.75-4.22-4-8.19-1.32-4.76,3.22-8.86,7.35-14,10l-2.44,0c-2.05-1.46-.48-2.79.46-3.55,5.87-4.78,11.25-10.26,17.77-13-7.77-3.08-15.81-6.56-21-14.37a9.13,9.13,0,0,1-1.67-6.64c.35-2,1.08-3.72,3.55-1.83.17.27.28.58.45.85.91,1.49.44,4.88,2.83,4.15s2.34-3.54.86-5.76c-5.3-1.81-7.85-.84-10,3.85-2.41,5.25-2.34,10.6-.59,16,1.54,4.74,3.2,9.43,4.67,14.18C67.53,257.89,68.62,259.62,67.23,261.4Z"/><path class="cls-2" d="M104,265.39c-1.74-7.07-6.21-12.78-9.77-18.89C92,242.62,87.07,242,83.4,239.79c-2.11-1.27-5.93-1.86-5.93-4,0-3.85,1.58-7.73,2.73-11.54.44-1.45,1.68-.44,2.51-.15,16.79,5.82,33.55,5.91,50.27-.24,2-.72,2.79-.55,3.38,1.82,2.55,10.3,2.78,10.51-6.76,15.39-9.19,4.69-13,13.2-17,21.83-.67,1.48-.6,2.58,1.37,2.72C110.66,266.59,107.37,265.18,104,265.39Z"/><path class="cls-3" d="M68.42,223.49c-1.84-1.63-2.2-.35-2.3,1.22-.22,3.42,1.55,6,3.64,8.44,4,4.7,9.39,7.26,14.83,9.76,1.8.82,3.5,1.85,5.37,2.85-7.52,4-13.72,9.38-19.85,14.83-.38.34-.32,1.17-.47,1.78a2.19,2.19,0,0,1-2.42-1c-1.94-8.06-5.66-15.55-7.36-23.69-1.13-5.41.72-10.18,2.93-14.8,1.42-3,8.22-3.6,11.8-1.51C72.94,223.28,71.15,224.77,68.42,223.49Z"/><path class="cls-3" d="M149.4,221.43c3.57,1.54,6.52,7.43,6.09,12.2-.7,7.67-3.68,14.75-5.71,22.07-.52,1.88-1.76,3.61-1.29,5.72l-2.08,1.08q-.59-.21-.47-.55c.09-.25.19-.37.3-.37-5.47-6.51-12.65-10.85-19.55-15.84,3.24-2.46,7.41-3.95,11.07-6.25,6.15-3.86,11.51-8.56,10.5-17C148.07,221.54,148.29,221,149.4,221.43Z"/><path class="cls-4" d="M146.25,261.58a2.91,2.91,0,0,1,.16.92,9.7,9.7,0,0,1-7.52-1.86c-1.34-1-2.87-1.65-4.31-2.48-4.66-2.72-9.11-3.7-13.53.73a7.73,7.73,0,0,1-4.67,2.66c.8-4.23,3.6-7.42,5.91-10.78,1.63-2.37,4.13-2.31,6.46-.52,4.08,3.14,8.22,6.2,12.24,9.41C142.59,260.92,144,262.42,146.25,261.58Z"/><path class="cls-5" d="M72.09,262.4c4.57-4.81,10-8.55,15.35-12.36,2-1.43,4.37-1.56,5.75.35,2.48,3.42,5.64,6.55,6.34,11l-3.09-.9c-1.54-.94-2.75-2.31-4.24-3.31-5.09-3.88-8.92.53-13.11,2.11C76.73,260.21,75.12,262.9,72.09,262.4Z"/><path class="cls-6" d="M92.21,257.2c3.27-1.28,3.84.91,4.24,3.31-.47,2.11-2.1,2.68-3.58,1.69C91.14,261,90.77,259.1,92.21,257.2Z"/><path class="cls-2" d="M36.26,163.53c-4.17-8.52-7.46-17.31-8.11-26.89-.83-13.86-.13-27.74-.37-41.6a10.63,10.63,0,0,1,.59-3.91c3.76-9.58,3.25-19.87,5.16-29.74C35,53.51,37.73,46,43.65,40.09a7,7,0,0,1,1.53-.85C55.46,37,65.95,36.38,76.37,36.13q26.94-.66,53.91,0c12.79.29,25.53,1.75,38.26,3.16a11.64,11.64,0,0,1,9.21,6.09c3.79,6.58,6.61,13.59,6.81,21.19s.17,15.25,2.23,22.69c.28,3.14,1.8,6.2.62,9.43,0,12.61-.17,25.22.11,37.82.15,6.66-3.77,11.88-5.29,17.92-.92,4.57-3.67,8.18-6.25,11.88a40,40,0,0,1-6.67,7.33c-2.57,2.26-4.74,1.78-5.5-1.52-1.32-5.73-5.06-8.23-10.54-8.82-1-.31-2-.66-2.94-1-5.73-.56-11.45-.85-17.15.28-3.48.34-6.84,1.57-10.39,1.36-7.57,0-15.14,0-22.71,0-5.6.08-11-1.93-16.6-1.67-7.78,0-15.66-1.79-23.29,1.22-4.78,1.35-7.31,4.77-8.91,9.28-1.73,4.87-3.24,5.24-7,1.86C40.82,171.51,37.34,168.36,36.26,163.53Z"/><path class="cls-7" d="M183.19,156.41l3.49-6.78c5,27.13-9.22,44.29-30.29,57.79-10.84,6.95-22.31,12.53-35,15-14.74,2.88-29,1-42.87-4.74-15.38-6.42-29.08-15.34-40.2-27.82-10.29-11.54-12-25.57-10.65-41.26,3.12,6,3.9,12.16,7.64,16.88,3.64,2.9,6.19,6.87,9.76,9.85,4.14,3.45,4.77,3.42,6-1.55,1.35-5.59,5-8.83,10-10.87,7.28-2.63,14.73-1.14,22.12-1,6.41-.16,12.6,2.09,19,1.7a70,70,0,0,0,18.19,0c8.58-.08,16.92-3.08,25.59-2.13,1.79.2,3.66-.2,5.35.7a3.89,3.89,0,0,0,.92.34c8,.91,11.92,5.71,12.31,13.94,5.26-2.15,7.71-6.65,11-10.17C178.53,163.32,179.43,158.76,183.19,156.41Z"/><path class="cls-8" d="M44.3,40.54c-8.14,10.89-10.85,23.21-11,36.68,0,5.49-3.1,11-4.78,16.43-1.6-2.37-.63-5-.73-7.52a131.14,131.14,0,0,1,.35-13.78c.74-9.28,1.57-18.53,5.16-27.27,7.35-17.89,21.27-26.51,39.82-30,27.83-5.22,55.21-4.63,82.32,3.66a33.75,33.75,0,0,1,13.72,7.89c.89,1.08,1.3,2.66,3,2.91C183.58,42.36,186.62,58,187.34,74.41a71.26,71.26,0,0,1,.4,11c0,1.57.39,3.33-1.56,4.19-1.75-5.08-3.74-9.92-3.07-15.7,1.14-9.85-1.74-19-6.46-27.69-1.76-3.24-4.31-5.15-7.77-5.51-8.56-.87-17.15-1.38-25.71-2.19-20.41-1.93-40.87-.69-61.3-1-12.6-.16-25.1,1.41-37.57,3Z"/><path class="cls-9" d="M22.32,101.57c1,.36.92,1.24.92,2,0,12.59,0,25.19-.5,37.86-5.61-10-9.27-20.45-7.68-32.18,1.73.58,3-1.32,4.84-.77s1.07-1.1,1.14-1.87C21.19,104.89,20.73,103,22.32,101.57Z"/><path class="cls-10" d="M200.45,109.34c1.6,11.83-2.09,22.43-8.14,32.64V112.51C193.84,108.42,197,108.46,200.45,109.34Z"/><path class="cls-11" d="M60.24,164.39c-5.8,2.52-8.33,7.31-8.9,13.27-.29,3-1.17,2.86-3.29,1.34-5.15-3.68-9.82-7.77-12.78-13.5a2.08,2.08,0,0,0,1-2c3.56,4.68,6.74,9.73,12.6,12.86,1.92-5.77,3.18-12.19,10.41-13.83C60,163,60.71,163.37,60.24,164.39Z"/><path class="cls-12" d="M200.45,109.34l-.62,1.32c-3.2-2.21-5.32,0-7.52,1.84-.07-2.46-.2-4.91-.17-7.37,0-1.53-.48-3.46,2-3.73,2.12-.23,4,.11,5,2.24A12.44,12.44,0,0,1,200.45,109.34Z"/><path class="cls-13" d="M28.19,72.35c1.23,7.08-.57,14.21.38,21.29q-.21,21.5-.41,43c-1.43-9.85-.83-19.77-.88-29.67-.05-10.27.15-20.54.27-30.81C27.56,74.88,27.23,73.5,28.19,72.35Z"/><path class="cls-14" d="M22.32,101.57v10.25c-2.2-4.13-5.2-.61-7.26-2.53C16,101.74,17,100.69,22.32,101.57Z"/><path class="cls-15" d="M68.42,223.49l6.18-2.1c1.82,2.69.49,5.35-.7,7.57-1,1.91-3.16,2.45-4.42-.26A9.4,9.4,0,0,1,68.42,223.49Z"/><path class="cls-16" d="M146,223.47a10.55,10.55,0,0,1,.08,2.48c-.35,1.75-.75,4.11-2.72,4.14s-2.1-2.27-2.21-3.93-2-3.68.13-5.44C143.23,221,145.29,221.08,146,223.47Z"/><path class="cls-17" d="M186.18,89.57c1.37-5,2.47-9.92-1.43-14.37l2.59-.79c1.22,8.08.64,16.17.05,24.25Z"/><path class="cls-18" d="M183.19,156.41l-6.88,10.15a1.22,1.22,0,0,1-1-1.05l7-11.11Z"/><path class="cls-19" d="M146,223.47l-4.72-2.75c2.9-2,5.48-.41,8.11.71l-1.12,1.07C147.14,221.93,146.44,222.38,146,223.47Z"/><path class="cls-20" d="M172.2,29.55c-3.67,1.77-2.67-1.25-3-2.91A5.83,5.83,0,0,1,172.2,29.55Z"/><path class="cls-21" d="M45.11,128.3c-7.07-4.36-6.72-15.12.74-19.68,7-4.26,14.92-4.52,22.69-4.52,6.08,0,12.28,0,18.21,2.24,5.41,2,9.27,5.34,9.89,11.28.68,6.48-.62,12.6-6.81,15.95-11.45,6.2-23.41,6.61-35.53,1.84a.92.92,0,0,1,.24-1.33c2.84-1.34,5.55,0,8.27.5a39.45,39.45,0,0,0,21.05-2c5-1.85,9-4.75,8.91-10.66-.12-5.66-4.13-8.32-9-10-1.79-.26-3.49-1-5.37-1,2.84,6.41,2.23,10.21-2.11,13.6s-11.36,3.08-15.6-.79c-2.4-2.19-4.82-4.79-2.07-8.44,1.06-.18,1.86.45,2.71.9,1.59.85,3.12,1,4.45-.45a3,3,0,0,0,.74-3.17c-.63-1.72-2.18-1.73-3.66-1.79a20.35,20.35,0,0,0-2.44.12c-1.64.11-3.18.75-4.8.92a17,17,0,0,0-6.94,2.57c-4.61,2.94-5.31,5-3.54,10.28C45.56,125.87,46.41,127.11,45.11,128.3Z"/><path class="cls-21" d="M127.88,134.71c-7.06-2.84-9.22-8.63-9.1-15.59.11-6.22,3.61-10.8,10.63-12.79a61.85,61.85,0,0,1,36.76.59c9.15,3,11.93,11.4,7.19,19.14-1,1.57-2,2.6-3.92,2.33-.52-.82-.15-1.58.17-2.34,3-7.09,1.11-11-6.32-13.21-.63-.19-1.31-.22-2-.36a24.29,24.29,0,0,1-3.25-1.12,18,18,0,0,0-3.58-1c-.15,0,.41.68,1,1.21,4.69,7.23,1.17,14.47-7.41,15.16-4.49.36-8.64-.54-11.53-4.34-1.34-1.77-2-3.85-.37-5.92,1.33-.77,2.55.1,3.83.27,2.33.31,4.08-.6,4.32-3s-1.81-2.82-3.69-3a33.09,33.09,0,0,0-3.47,0,12.57,12.57,0,0,0-4.72.64,17.83,17.83,0,0,0-6.11,3.23c-5,4.56-5.09,10.47-.22,15.18,1.28,1.24,3.13,2,3.39,4.09C129.25,134.7,128.74,135.08,127.88,134.71Z"/><path class="cls-22" d="M42.64,97.62c1.77-9.46,7.83-14.52,18.61-14.86s21.58.09,32.38.16c1.39,0,2.87,0,3,1.79.2,3,0,6-2.73,8.08-1.7,1.28-3.71,1.34-5.72,1.28q-11.45-.31-22.89-.65C57.53,93.19,49.74,92.71,42.64,97.62Z"/><path class="cls-22" d="M144.29,83.34c6-.44,11.93-.56,17.81,1,5,1.35,7.63,5,9.73,9.23a3.09,3.09,0,0,1,.27,2.33c-.42.86-1.4.55-2.19.17-9.21-4.38-18.94-2.19-28.49-2.18-5.14,0-10.29.3-15.43.43-3.62.09-5.94-1.6-7-5.13-1.41-4.84-.71-5.85,4.36-5.87C130.34,83.32,137.31,83.34,144.29,83.34Z"/><path class="cls-3" d="M45.11,128.3a1.36,1.36,0,0,0,0-.49c-3.86-10.22-1.57-14.17,10-17.18.8,1.31.13,2.59-.13,3.86-1.16,5.74.87,10.14,5.66,13.3,5.2,3.44,10.73,3.45,16.09.71s7.66-7.21,6.89-13.21c-.21-1.63-.74-3.32.75-4.67,5.27,1.93,9.54,5,10.13,11,.51,5.18-3.3,9.94-9.82,12.33-8.32,3.05-16.89,3.14-25.51,1.33-1.61-.34-3.23-.63-4.84-.95-3.23-.55-5.36-2.92-7.86-4.69Z"/><path class="cls-3" d="M161.32,111.57c5.1-.06,8.7,2.61,11.06,6.77s-1.26,6.89-2.94,10l-.26,1.17a19.49,19.49,0,0,1-4.49,3c-10.2,6.21-21,6.15-32.08,3a7,7,0,0,1-3.34-2,4.21,4.21,0,0,0-.75-.65c-5.06-2.59-8.31-6.6-7.21-12.36s5.26-9,11-10c1.44,2.21.25,4.55.27,6.82.09,8.57,5.38,13.08,15.32,12.87,7.77-.16,13.21-5.77,13-13.33C160.86,115.09,159.89,113.22,161.32,111.57Z"/><path class="cls-23" d="M120.12,131.6c1.31,5.46,3.15,10.79,3.18,16.54a8.89,8.89,0,0,1-3.42,7.31c-6.21,5.4-19,4.19-24.21-2.72,4.32.21,8.09,2.08,12.2,1.82,10-.63,13.67-2.73,12.38-13.07-.37-3-.71-5.91-1.07-8.87C118.72,131.54,119.25,131.4,120.12,131.6Z"/><path class="cls-24" d="M152.29,163.47c-8.05-2.08-16.11-1-24.07.37a60.07,60.07,0,0,1-7.87.7,76.19,76.19,0,0,1-18.13,0c-6.43.35-12.66-1.07-18.94-2.09q-.51-.34-.36-.7t.32-.37c3.34-2.05,6.47.78,9.8.45,2-.2,4.19.56,6.29.89a179.84,179.84,0,0,0,23.93-.06c3.3-.31,6.48-1.55,9.86-1.22a84.23,84.23,0,0,1,18.4,0c.9-.16,1.61,0,1.89,1C153.24,163,152.64,163.11,152.29,163.47Z"/><path class="cls-25" d="M129.27,133.53c12.27,4,24.33,4.41,36-2q.84.54.09,1.2c-2.12,2.82-5.37,3.75-8.47,4.43-9.87,2.18-19.67,2.29-29-2.43Z"/><path class="cls-11" d="M152.29,163.47l1.11-1c7-.14,9.69,2.49,12.2,12,4.16-2.07,6.57-5.89,9.67-8.94l1,1.05a67.44,67.44,0,0,1-10,10.9c-.71.6-1,1.93-2.24,1.41s-.68-1.72-.78-2.65C162.34,167.49,160.13,164.92,152.29,163.47Z"/><path class="cls-26" d="M83.23,161.38l0,1.07c-7.68.62-15.58-1.41-23,1.95l-1-1.83C67.12,159.23,75.15,159.84,83.23,161.38Z"/><path class="cls-27" d="M116.36,64.54c-4.28,2-8.77,1.08-13.12.68a63.51,63.51,0,0,1-11-2.45c7.4-.73,14.69,1.55,22.07.81C114.85,64.22,115.89,63.77,116.36,64.54Z"/><path class="cls-28" d="M117.25,69.44a41,41,0,0,1-22.08-.89c.47-.79,1.52-.33,2.06-1a92.11,92.11,0,0,0,16.93.87C115.39,68.18,116.88,67,117.25,69.44Z"/><path class="cls-29" d="M109.54,87.43c1.18,4.82,2,9.22,5.65,12.91C109.75,98.84,107.4,93.39,109.54,87.43Z"/><path class="cls-30" d="M106.88,84.66c.39,5.36,1,10.88-4.6,14.48C104.88,94.65,105.18,89.5,106.88,84.66Z"/><path class="cls-31" d="M123.25,162.67a70.86,70.86,0,0,1-23.93.06Z"/><path class="cls-32" d="M117.25,69.44c-.76-1.15-2-.88-3.08-1,1.81-1.56,4-.8,6-1,3.39-.14,6.95-2,10,1Z"/><path class="cls-33" d="M130.24,68.45c-3.18-1.94-6.7-.48-10-1,5.14-1.84,10.27-.74,15.42-.22C134,69,132.06,68.32,130.24,68.45Z"/><path class="cls-34" d="M146.67,143.6c-3.19,1.06-6.32,1.4-9.28-.62C140.52,142.73,143.68,141.94,146.67,143.6Z"/><path class="cls-35" d="M89.37,68.43h-7.8a14.44,14.44,0,0,1,12.75-1C92.86,68.71,90.86,67.31,89.37,68.43Z"/><path class="cls-31" d="M151.51,161.42l-18.4,0A43.57,43.57,0,0,1,151.51,161.42Z"/><path class="cls-36" d="M46.45,129.65c3.31.41,5.4,2.85,7.86,4.69l0,1.07C51,134.43,47.87,133.2,46.45,129.65Z"/><path class="cls-37" d="M119.22,63.46c1.83-1.59,3.95-.83,6.61-.82a8,8,0,0,1-5.61,1.77A2.25,2.25,0,0,1,119.22,63.46Z"/><path class="cls-38" d="M69.45,143.66h6.7v.52H69.4Z"/><path class="cls-39" d="M89.37,68.43c1.39-1.63,3.31-.61,4.95-1l2.91.14a2.33,2.33,0,0,1-2.06,1Z"/><path class="cls-36" d="M165.36,132.7l-.09-1.2c1.22-.81,2.14-2.24,3.91-1.94C169.05,132,167.33,132.5,165.36,132.7Z"/><path class="cls-40" d="M119.22,63.46l1,.95-3.87.13a2.26,2.26,0,0,1-2-1Z"/><path class="cls-41" d="M120.12,131.6l-.94,1a2.83,2.83,0,0,1-.78-3.06C119.85,129.5,119.74,130.76,120.12,131.6Z"/><path class="cls-2" d="M126.32,201.69c-3.38-.18-6.82.24-10.09-1a2,2,0,0,1-2.22-1.32c-.64-.13,1.47-1.26-.39-1-4.69.6-9.38.92-13.49-.55.42.32,1.89.53,1.54,2.15l-.38.58c-7.52,3.83-14.5,2.33-20.84-2.57-7.59-5.87-15.14-11.89-18.39-21.52-.92-1.55-1.32-3.33.07-4.58s3,.12,4.54.7a28.34,28.34,0,0,1,11.83,8.91c6.23,7.72,14.74,10.67,24.05,11.53,8.64.8,17.31.49,25.5-3.05a34.17,34.17,0,0,0,8.49-5.91,15.86,15.86,0,0,0,2.15-2.78c2.87-3.74,5.19-8.09,10.24-9.47,1.23-.34,2.59-1.13,3.64.13a2.58,2.58,0,0,1-.23,3.57c-1.37,9.8-7.82,16.06-15.22,21.58a47.69,47.69,0,0,1-6,3.31A5,5,0,0,1,126.32,201.69Z"/><path class="cls-42" d="M129.26,190.47c-9.41,5-19.47,4.44-29.57,3.49a32.85,32.85,0,0,1-23.36-12.72c-3.68-4.66-8.85-6.55-13.51-9.56-1.31,1.52,0,3.31-.75,4.78-2.73-.63-1.85-2.81-1.69-4.43.19-2,1.67-3.66,3.61-3.35,2.4.38,5.52-2.14,7.22,1.5-1,3,1.66,2.33,2.88,2.54a71.68,71.68,0,0,0,12.91.48c15.26-.23,30.53-.07,45.79-.09a35.57,35.57,0,0,0,13.07-2.24c-1-.53-2.23-.09-3.14-.79l-.49-.49c2.93-3.57,6.51-2.29,9.88-1.09,2.84,1,2.15,3.73,2.18,6,0,1.59-.9,1.45-2,1,.1-2.34.25-3.9-3.29-2.73-5.12,1.69-6.4,6.73-9.94,9.7-.9.11-1.2-.44-1.31-1.19,1.81-3.89-.77-3.61-3.27-3.4-5.83.07-11.64,0-17.46.08q-10.69.09-21.38,0c-4.65-.1-9.3-.08-13.94,0a9.77,9.77,0,0,0-3.78.84c5.06,4.66,9.83,8.88,16.34,10.62a55.75,55.75,0,0,0,27.5.39c2.08-.49,4.11-1.34,6.33-1C128.89,189.1,129.48,189.51,129.26,190.47Z"/><path class="cls-43" d="M148,171.37c-6.59,3.49-13.71,3.37-20.9,3.32-16.81-.12-33.62,0-50.43,0-3.72,0-7.06-1.22-10.85-3.73l5.37-.75,3.1.2c7.26,1.31,14.64.11,21.92,1,12.27.09,24.55-1.3,36.82.11,3.18.37,6.22-.71,9.17-1.88h0c1.31.84,2.77.27,4.15.47C147.15,170.15,148.45,169.71,148,171.37Z"/><path class="cls-44" d="M96.23,171.35c-7.32-.12-14.72,1.58-21.92-1C81.61,170.79,89,169.74,96.23,171.35Z"/><path class="cls-31" d="M102.21,164.54h18.13A36.32,36.32,0,0,1,102.21,164.54Z"/><path class="cls-45" d="M114.29,199.5l1.94,1.18a25.83,25.83,0,0,1-14.93-.16l-.11-.32a6.8,6.8,0,0,1,3.88-1.05c1.83,0,3.65,0,5.48,0C111.8,199.16,113.1,198.75,114.29,199.5Z"/><path class="cls-46" d="M126.32,201.69l4.75-1.3C130,202.72,129.54,202.85,126.32,201.69Z"/><path class="cls-47" d="M100,31.95a4.06,4.06,0,0,1,.79,1.4c.12.86-.64,1-1.3.95s-1.06-.66-1.06-1.35S99,31.88,100,31.95Z"/><path class="cls-48" d="M44.3,40.54c-1-.17-2-.39-1.81-1.73,0-.31.72-.84.91-.76,1.19.45.75,1.59.9,2.49Z"/><path class="cls-49" d="M69.49,33.09c.92,0,1.37.47,1.44,1.11,0,.3-.63,1-.71.92a4.09,4.09,0,0,1-1.37-1.06C68.77,34,69.29,33.37,69.49,33.09Z"/><path class="cls-50" d="M52.28,26.26c-.41.29-.8.75-1.07.69a1.28,1.28,0,0,1-.75-.94c-.06-.68.36-1.25,1.12-1C51.87,25.1,52,25.74,52.28,26.26Z"/><path class="cls-48" d="M72.29,18.84c-.32.47-.51,1.05-.82,1.13-.85.22-1.09-.49-1-1.12,0-.33.52-.84.81-.84S71.91,18.5,72.29,18.84Z"/><path class="cls-17" d="M135.27,17.25c-.41.29-.81.76-1.06.69a1.3,1.3,0,0,1-.76-.94c-.06-.69.36-1.26,1.11-1C134.87,16.09,135,16.72,135.27,17.25Z"/><path class="cls-51" d="M35.17,49.11l-.87,1c-.3-.29-.78-.55-.85-.89s.35-.67.54-1Z"/><path class="cls-50" d="M142.8,31.11c.15.74-.18,1.1-.69,1a1.6,1.6,0,0,1-1-.69c-.34-.61.23-.84.68-.8A3.25,3.25,0,0,1,142.8,31.11Z"/><path class="cls-52" d="M158.52,27.4c-.21-.19-.67-.42-.78-.77a.6.6,0,0,1,.77-.78,1.57,1.57,0,0,1,1,.8C159.69,27.22,159.21,27.39,158.52,27.4Z"/><path class="cls-17" d="M94.5,16.78c-1.27.36-1.71.63-2,.53s-.53-.6-.79-.92c.36-.17.73-.5,1.07-.47S93.56,16.29,94.5,16.78Z"/><path class="cls-53" d="M84.36,110.63a9.55,9.55,0,0,0-.09,2.38c1.69,8-.33,12.85-7,16.82-5.61,3.32-13.69,2.43-19.07-2.1-5.21-4.4-6.15-9.65-3.07-17.1l5.24-1c.37,2.16-.38,4.09-1.24,6-.57,5.17,1.17,7.79,6.33,9.5,4.68,1.56,10,0,12.46-3.85,3-4.61.9-8.12-2.85-11.34C78.41,108.87,81.35,110.16,84.36,110.63Z"/><path class="cls-54" d="M59.09,115.58a6.32,6.32,0,0,1,1.24-6c.83,0,1.66,0,2.49-.12,2.16-.18,4.49-.67,5.36,2.16a4.79,4.79,0,0,1-1.83,5.74c-2.25,1.59-4.35,1.3-6.22-.72C59.8,116.28,59.44,115.94,59.09,115.58Z"/><path class="cls-55" d="M161.32,111.57c2.45,8.84.6,14.13-6.41,18.4-5.93,3.61-14.31,2.55-19.85-2.51s-4.73-10.85-2.76-17c1.58-1.64,3.53-.66,5.33-.74a12.78,12.78,0,0,1-.51,6.7c-1.62,1.74-.67,3.44.24,5,2.5,4.27,10.42,5.57,15.15,2.58,5.28-3.34,5.72-6.53,1.73-12.49.75-2.69,2.55-1.37,4.08-1.08Z"/><path class="cls-54" d="M137.12,116.44c-1.45-2.36-.79-4.55.51-6.7a16.56,16.56,0,0,1,2-.23c2.42,0,5.17-.71,6.22,2.58.77,2.41-.21,4.23-2.13,5.59C141.13,119.47,139,118.44,137.12,116.44Z"/><path class="cls-56" d="M158.33,110.45c-1.39.26-3-.45-4.08,1.08l-3.11-1.85C154.27,109.6,156.34,108.84,158.33,110.45Z"/><path class="cls-57" d="M114.29,199.5l-3.12.74a11.82,11.82,0,0,0-5.83.09l-4.15-.13c.13-2.14-2.73-1.69-3.07-3.58a48.39,48.39,0,0,0,19.27,0C117.07,198.46,114.87,198.11,114.29,199.5Z"/><path class="cls-58" d="M129.26,190.47l-1-1c1.46-3.71,4.72-5.16,8.11-6.43.75.25,1.36.59,1,1.55A19.33,19.33,0,0,1,129.26,190.47Z"/><path class="cls-59" d="M137.3,184.57l-1-1.06c-.39-1.65.36-2.22,1.92-2l.86,1C139,183.63,138.19,184.11,137.3,184.57Z"/><path class="cls-60" d="M138.24,181.49a3.35,3.35,0,0,0-1.92,2l-8.1,5.95c-11.5,3.58-23.06,4.3-34.79,1.1-6-1.65-14.84-8.15-17.73-13.44,1.54-1.05,3.25.36,4.79-.32,1.52.47,3.1.68,4.64,1.11,2.18.41,4.34.91,6.55,1.2,13.38,1.63,26.71,2,39.9-1.47a16,16,0,0,0,4.59-1c1.54.1,3.7-1,4.46.51C141.54,179,138.72,179.83,138.24,181.49Z"/><path class="cls-61" d="M95.31,176.6h21.93c3.29,1.41,7-.78,10.23,1.22-2.74,2.57-6.27,2.63-9.62,2.63-9,0-18,.73-26.86-1-.88-.19-1.68-.51-1.93-1.51C90.83,175.92,93.41,177.87,95.31,176.6Z"/><path class="cls-62" d="M127.34,177.38c-3.34-.6-6.83.64-10.1-.79l18.92.08a3.72,3.72,0,0,1-3,1.65C131.28,177.45,129,179.58,127.34,177.38Z"/><path class="cls-63" d="M95.31,176.6c-1.8,1.32-4,.4-5.95,1.18-1.59,1.1-3.45.53-5.18.82s-2.58-1-3.7-1.81Z"/><path class="cls-7" d="M148,171.37c-1.35-2.47-4.29.15-5.8-1.8,2.07,0,4.15-.11,6.22-.14.66,0,1.41.19,1.07,1C149.32,170.87,148.53,171.06,148,171.37Z"/><path class="cls-64" d="M105.33,200.34a5.12,5.12,0,0,1,5.83-.09Z"/><path class="cls-65" d="M127.34,177.38c2,.07,4-.47,5.77.94-14.11,4.52-28.43,4.29-42.84,1.88-.53-.56-.64-1.13,0-1.69,9,1.35,18.09,1,27.16,1A20.13,20.13,0,0,0,127.34,177.38Z"/><path class="cls-66" d="M90.28,178.51v1.69c-1.89-1.06-4.31-.11-6.09-1.6,1.56-1.32,3.42-.73,5.18-.82Z"/></svg>